<svg width="280" height="59" viewBox="0 0 280 59" fill="none" xmlns="http://www.w3.org/2000/svg">
<path d="M11.1149 46.2319L38.5489 47.3291C41.2652 47.4661 43.4381 45.4091 43.5738 42.6661L44.9319 8.51757C45.0678 5.22615 41.9441 2.75757 38.6846 3.71757L35.8327 4.40329C35.2894 4.54043 35.0177 4.95185 35.0177 5.50043C35.0177 6.18615 35.6968 6.73471 36.3758 6.59757L37.8698 6.18615C40.3145 5.36329 42.759 7.28329 42.759 9.88899L41.5367 41.5691C41.4008 43.6261 39.6353 45.2719 37.5982 45.1347L12.2014 44.1747C10.1643 44.0375 8.53454 42.2547 8.67035 40.1975L8.80616 37.0433C8.80616 36.4947 8.39873 36.0833 7.85548 36.0833H7.58386C7.04061 36.0833 6.63318 36.4947 6.63318 37.0433L6.49736 41.2947C6.36155 43.9005 8.39873 46.0947 11.1149 46.2319Z" fill="#1B2459"/>
<path d="M5.68256 44.3118C5.68256 44.3118 5.81837 44.3118 5.68256 44.3118C6.36161 46.2318 8.12716 47.6032 10.1643 47.7402L40.3145 49.1118C44.7962 48.9746 45.6111 44.7232 45.7469 42.9402V42.2546L47.105 8.10597C47.2409 5.08883 45.0678 2.62025 42.2159 2.20882C42.2159 2.20882 50.2287 0.83739 50.2287 7.00883L48.4632 49.6602C48.4632 49.9346 48.3273 50.2088 48.0557 50.346C47.784 50.6202 47.5125 50.6202 47.2409 50.6202L42.8948 50.4832C42.3515 50.4832 42.08 51.0318 42.4874 51.4432L44.3888 53.7746H36.376L32.3016 50.6202C31.3509 50.346 30.6718 50.0718 29.9928 50.0718L7.31229 48.9746C7.31229 48.9746 5.0035 48.9746 5.68256 44.3118Z" fill="#BF1B39"/>
<path d="M45.6111 55.1461L19.3995 56.9291C18.4488 56.9291 17.4981 56.7919 16.5474 56.3805L13.288 54.5975C12.6089 54.0491 13.0163 52.8147 13.8312 52.8147L45.6111 53.5005C45.7469 53.5005 45.8826 53.5005 46.0185 53.6375C46.5618 54.0491 46.4259 55.0091 45.6111 55.1461Z" fill="#BF1B39"/>
<path d="M24.8319 2.3457H30.6717C31.8942 2.3457 32.9806 3.44284 32.9806 4.67714V10.5743C32.9806 11.8086 31.8942 12.9057 30.6717 12.9057H24.8319C23.6096 12.9057 22.5232 11.8086 22.5232 10.5743V4.53998C22.5232 3.3057 23.6096 2.3457 24.8319 2.3457Z" fill="#1B2459"/>
<path d="M12.7447 25.7972V31.6944C12.7447 32.9286 11.6582 34.0258 10.4359 34.0258H4.46022C3.23791 34.0258 2.15142 32.9286 2.15142 31.6944V25.7972C2.15142 24.5628 3.23791 23.4658 4.46022 23.4658H10.3001C11.6582 23.4658 12.7447 24.5628 12.7447 25.7972Z" fill="#1B2459"/>
<path d="M4.46022 2.2085H12.4731C13.6954 2.2085 14.7819 3.30564 14.7819 4.53992V11.1228C14.7819 11.6714 15.0535 12.3571 15.4609 12.7685L21.5724 18.94C21.9798 19.3514 22.5231 19.6256 23.2022 19.6256H29.7211C30.9435 19.6256 32.0299 20.7228 32.0299 21.957V30.0486C32.0299 31.2828 30.9435 32.38 29.7211 32.38H21.7082C20.486 32.38 19.3994 31.2828 19.3994 30.0486V23.4656C19.3994 22.917 19.1279 22.2314 18.7205 21.82L12.6089 15.6485C12.2015 15.2371 11.6582 14.9628 10.9792 14.9628H4.46022C3.23791 14.9628 2.15142 13.8656 2.15142 12.6314V4.53992C2.15142 3.30564 3.23791 2.2085 4.46022 2.2085Z" fill="#BF1B39"/>
<path d="M56.2043 44.7231V9.34033H63.8099V38.1403H81.4652V44.7231H56.2043Z" fill="#BF1B39"/>
<path d="M91.9229 45.4087C90.9722 45.4087 90.1573 45.2717 89.0708 45.1345C88.1201 44.8601 87.1694 44.5859 86.2187 44.0373C85.268 43.4887 84.589 42.6659 84.0457 41.7059C83.5024 40.7459 83.2309 39.3745 83.2309 37.8659C83.2309 35.9459 83.6383 34.4373 84.4532 33.2031C85.268 31.9687 86.4904 31.0087 87.9842 30.3231C89.4782 29.6373 91.3796 29.0887 93.4167 28.8145C95.5898 28.5401 97.8984 28.4031 100.479 28.4031V26.3459C100.479 25.5231 100.343 24.8373 100.072 24.2887C99.7998 23.7401 99.3924 23.1917 98.7135 22.9173C98.0343 22.5059 97.2195 22.3687 96.1329 22.3687C95.0465 22.3687 94.0958 22.5059 93.4167 22.7801C92.7377 23.0545 92.1944 23.4659 91.9229 23.8773C91.6511 24.2887 91.5155 24.8373 91.5155 25.2487V25.9345H84.589C84.589 25.7973 84.589 25.6601 84.589 25.3859C84.589 25.2487 84.589 24.9745 84.589 24.8373C84.589 23.1917 85.1323 21.8201 86.083 20.7231C87.0337 19.6259 88.3918 18.6659 90.1573 18.1173C91.9229 17.4316 93.96 17.1573 96.2688 17.1573C98.7134 17.1573 100.886 17.4316 102.516 18.1173C104.146 18.8031 105.504 19.7631 106.455 20.9973C107.405 22.2317 107.813 23.8773 107.813 25.7973V38.1401C107.813 38.8259 107.949 39.2373 108.356 39.5117C108.763 39.7859 109.171 39.9231 109.578 39.9231H111.208V44.5859C110.801 44.7231 110.393 44.9973 109.578 45.1345C108.899 45.2717 107.949 45.4087 106.998 45.4087C106.047 45.4087 105.097 45.2717 104.417 44.9973C103.603 44.7231 103.059 44.3117 102.516 43.7631C101.973 43.2145 101.701 42.5287 101.43 41.8431H101.022C100.479 42.5287 99.7998 43.2145 98.8491 43.7631C98.0343 44.3117 97.0836 44.7231 95.9972 44.9973C94.6391 45.1345 93.4167 45.4087 91.9229 45.4087ZM94.3674 39.9231C95.3181 39.9231 96.1329 39.7859 96.9479 39.5117C97.7628 39.2373 98.306 38.8259 98.8491 38.2773C99.3924 37.7287 99.7998 37.1801 100.072 36.4945C100.343 35.8087 100.479 34.9859 100.479 34.1631V32.6545C98.5776 32.6545 96.8121 32.7917 95.3181 33.0659C93.8241 33.3401 92.6018 33.7517 91.787 34.4373C90.9722 35.1231 90.4289 35.9459 90.4289 37.0431C90.4289 37.7287 90.5648 38.1401 90.8363 38.6887C91.108 39.1001 91.6511 39.5117 92.1944 39.7859C92.8736 39.7859 93.5525 39.9231 94.3674 39.9231Z" fill="#BF1B39"/>
<path d="M128.456 45.4088C126.69 45.4088 125.061 44.9974 123.703 44.3116C122.209 43.626 121.122 42.5288 120.172 41.0202H119.764L119.221 44.723H113.381V7.42017H120.443V20.586H120.715C121.258 19.763 121.937 19.0774 122.752 18.5288C123.567 17.9802 124.382 17.5687 125.468 17.2944C126.419 17.0202 127.505 16.883 128.728 16.883C130.901 16.883 132.666 17.4316 134.296 18.3916C135.926 19.3516 137.148 20.9974 137.963 23.0544C138.913 25.1116 139.321 27.8544 139.321 31.146C139.321 34.4374 138.913 37.043 137.963 39.2374C137.148 41.2944 135.79 42.9402 134.296 43.9002C132.666 44.8602 130.765 45.4088 128.456 45.4088ZM126.283 39.5116C127.777 39.5116 128.863 39.2374 129.678 38.6888C130.493 38.1402 131.172 37.3174 131.444 36.083C131.851 34.986 131.987 33.4774 131.987 31.8316V30.5974C131.987 28.8144 131.851 27.443 131.444 26.346C131.037 25.2488 130.493 24.2888 129.678 23.7402C128.863 23.1916 127.777 22.9174 126.283 22.9174C125.197 22.9174 124.382 23.0544 123.703 23.466C123.024 23.8774 122.345 24.2888 121.937 24.9744C121.53 25.6602 121.122 26.483 120.851 27.443C120.579 28.403 120.443 29.5002 120.443 30.7344V31.6944C120.443 33.3402 120.715 34.7116 121.122 35.946C121.53 37.1802 122.209 38.003 123.024 38.6888C123.839 39.1002 124.925 39.5116 126.283 39.5116Z" fill="#BF1B39"/>
<path d="M153.581 45.4089C151.68 45.4089 150.05 45.1345 148.556 44.7231C147.062 44.3117 145.976 43.7631 145.025 43.0775C144.074 42.3917 143.395 41.4317 142.852 40.4717C142.309 39.5117 142.173 38.2775 142.173 37.0431C142.173 36.9059 142.173 36.7689 142.173 36.6317C142.173 36.4945 142.173 36.3575 142.173 36.2203H147.47C147.47 36.3575 147.47 36.3575 147.47 36.4945C147.47 36.6317 147.47 36.6317 147.47 36.7689C147.47 37.8659 147.741 38.6889 148.284 39.3745C148.828 40.0603 149.643 40.4717 150.593 40.7459C151.544 41.0203 152.63 41.1575 153.853 41.1575C154.939 41.1575 155.754 41.0203 156.705 40.7459C157.52 40.4717 158.334 40.0603 158.878 39.6489C159.421 39.1003 159.693 38.4145 159.693 37.7289C159.693 36.6317 159.285 35.9459 158.606 35.3975C157.927 34.8489 156.976 34.4375 155.754 34.0259C154.532 33.7517 153.445 33.3403 152.087 32.9289C151.001 32.6545 149.778 32.2431 148.692 31.9689C147.605 31.5575 146.519 31.1459 145.704 30.5975C144.753 30.0489 144.074 29.2259 143.531 28.4031C142.988 27.4431 142.716 26.3459 142.716 25.1117C142.716 23.8775 142.988 22.7803 143.531 21.8203C144.074 20.8603 144.889 20.0375 145.84 19.3517C146.791 18.6659 148.013 18.2545 149.371 17.8431C150.729 17.4317 152.223 17.2946 153.853 17.2946C155.482 17.2946 156.976 17.4317 158.334 17.8431C159.693 18.2545 160.779 18.6659 161.594 19.3517C162.545 20.0375 163.224 20.7231 163.631 21.6831C164.174 22.6431 164.31 23.6031 164.31 24.5631C164.31 24.8375 164.31 24.9745 164.31 25.2489C164.31 25.5231 164.31 25.6603 164.31 25.6603H159.149V25.2489C159.149 24.5631 159.013 23.8775 158.606 23.3289C158.199 22.7803 157.655 22.3689 156.841 21.9575C156.026 21.5459 154.939 21.4089 153.581 21.4089C152.63 21.4089 151.951 21.5459 151.272 21.6831C150.593 21.8203 150.05 22.0945 149.643 22.3689C149.235 22.6431 148.828 22.9175 148.692 23.3289C148.42 23.7403 148.42 24.1517 148.42 24.5631C148.42 25.3859 148.692 25.9345 149.235 26.3459C149.778 26.7575 150.593 27.1689 151.408 27.4431C152.359 27.7175 153.309 27.9917 154.396 28.4031C155.618 28.8145 156.841 29.0889 158.063 29.5003C159.285 29.9117 160.507 30.3231 161.594 30.8717C162.68 31.4203 163.495 32.2431 164.174 33.2031C164.854 34.1631 165.125 35.3975 165.125 37.0431C165.125 38.5517 164.854 39.7859 164.31 40.8831C163.767 41.9803 162.952 42.8031 161.866 43.4889C160.779 44.1745 159.557 44.7231 158.199 44.9975C156.705 45.1345 155.211 45.4089 153.581 45.4089Z" fill="#1B2459"/>
<path d="M186.855 53.6371V41.4314H186.447C185.904 42.3914 185.225 43.0771 184.41 43.6257C183.595 44.1743 182.644 44.5857 181.695 44.86C180.607 45.1343 179.521 45.2714 178.435 45.2714C176.398 45.2714 174.632 44.7229 173.002 43.7629C171.373 42.8029 170.15 41.1571 169.335 39.1C168.385 37.0428 167.977 34.3 167.977 31.1457C167.977 27.8543 168.385 25.1114 169.335 23.0543C170.15 20.9971 171.373 19.3514 173.002 18.3914C174.632 17.4314 176.533 16.8828 178.706 16.8828C180.472 16.8828 182.102 17.2943 183.459 17.98C184.954 18.6657 186.04 19.7628 186.991 21.2714H187.399L187.941 17.5685H192.288V53.6371H186.855ZM180.2 40.7457C181.287 40.7457 182.237 40.6085 183.052 40.1971C183.866 39.7857 184.547 39.3743 185.089 38.5514C185.632 37.8657 186.176 36.9057 186.447 35.6714C186.718 34.4371 186.855 33.0657 186.855 31.42V30.7343C186.855 28.8143 186.584 27.1685 186.176 25.66C185.632 24.2885 184.954 23.1914 184.003 22.5057C183.052 21.82 181.695 21.4085 180.2 21.4085C178.706 21.4085 177.348 21.6828 176.398 22.3685C175.447 23.0543 174.768 24.0143 174.224 25.2485C173.681 26.62 173.545 28.4029 173.545 30.46V31.42C173.545 33.4771 173.817 35.1229 174.224 36.4943C174.632 37.8657 175.447 38.8257 176.398 39.5114C177.348 40.3343 178.706 40.7457 180.2 40.7457Z" fill="#1B2459"/>
<path d="M206.547 45.409C203.968 45.409 201.795 44.7233 200.299 43.3519C198.67 41.9805 197.855 39.5119 197.855 36.2205V17.569H203.153V35.2605C203.153 36.3575 203.288 37.1805 203.561 37.8661C203.832 38.5519 204.239 39.1005 204.646 39.5119C205.19 39.9233 205.732 40.1975 206.276 40.3347C206.955 40.4719 207.635 40.609 208.45 40.609C209.672 40.609 210.758 40.3347 211.844 39.6491C212.795 39.1005 213.61 38.1405 214.288 37.1805C214.968 36.0833 215.239 34.8491 215.239 33.4775V17.569H220.536V44.7233H216.054L215.647 40.8833H215.239C214.561 41.8433 213.881 42.6661 212.931 43.3519C211.98 44.0375 211.029 44.4491 209.943 44.8605C208.992 45.1347 207.769 45.409 206.547 45.409Z" fill="#1B2459"/>
<path d="M226.24 12.9059V7.42017H231.536V12.9059H226.24ZM226.24 44.723V17.5687H231.536V44.723H226.24Z" fill="#1B2459"/>
<path d="M237.376 44.7229V17.5685H241.723L242.13 21.9571H242.402C242.673 21.1343 243.08 20.3114 243.624 19.4885C244.168 18.6657 244.711 18.1171 245.526 17.5685C246.341 17.02 247.291 16.8828 248.513 16.8828C249.057 16.8828 249.6 16.8828 250.008 17.02C250.415 17.1571 250.823 17.1571 250.957 17.2943V22.3685H249.193C248.105 22.3685 247.156 22.5057 246.341 22.9171C245.526 23.3285 244.846 23.74 244.304 24.4257C243.76 25.1114 243.353 25.9343 243.08 26.8943C242.809 27.8543 242.673 28.9514 242.673 30.1857V44.7229H237.376Z" fill="#1B2459"/>
<path d="M264.675 45.4087C261.959 45.4087 259.65 44.8601 257.749 43.9001C255.846 42.9401 254.49 41.2944 253.538 39.2373C252.587 37.1801 252.045 34.4373 252.045 31.283C252.045 27.9915 252.587 25.3859 253.538 23.1915C254.49 21.1344 255.846 19.6259 257.749 18.5287C259.65 17.5687 261.959 17.0201 264.811 17.0201C267.39 17.0201 269.564 17.5687 271.194 18.5287C272.96 19.4887 274.182 20.9973 275.133 23.0544C276.083 25.1115 276.49 27.5801 276.49 30.5973V32.6544H257.612C257.612 34.5744 258.02 36.2201 258.427 37.4544C258.971 38.6887 259.65 39.6487 260.737 40.3344C261.823 40.883 263.045 41.2944 264.675 41.2944C265.626 41.2944 266.576 41.1573 267.391 40.883C268.205 40.6087 268.886 40.1973 269.428 39.7859C269.971 39.2373 270.379 38.6887 270.65 38.003C270.923 37.3173 271.057 36.4944 271.057 35.5344H276.219C276.219 37.1801 275.948 38.5515 275.404 39.7859C274.86 41.0201 274.046 42.1173 272.96 42.9401C271.872 43.763 270.65 44.4487 269.293 44.8601C268.071 45.1344 266.441 45.4087 264.675 45.4087ZM257.749 28.5401H270.923C270.923 27.1687 270.786 26.0715 270.515 25.1115C270.242 24.1515 269.835 23.4659 269.293 22.9173C268.749 22.3687 268.071 21.9573 267.391 21.6829C266.576 21.4087 265.761 21.2715 264.811 21.2715C263.316 21.2715 262.094 21.5459 261.145 22.0944C260.193 22.643 259.379 23.4659 258.835 24.563C258.156 25.523 257.884 26.8944 257.749 28.5401Z" fill="#1B2459"/>
</svg>
